<svg xmlns="http://www.w3.org/2000/svg" viewBox="0 0 512 512" width="512" height="512">
	<style>
		tspan { white-space:pre }
		.shp0 { fill: #000000 } 
	</style>
	<path id="Background" class="shp0" d="" />
	<path id="Shape 1" class="shp0" d="" />
	<path id="Shape 2" class="shp0" d="M96 0C69.55 0 46.94 9.39 28.17 28.17C9.39 46.95 0 69.56 0 96L0 416C0 442.45 9.39 465.06 28.17 483.83C46.94 502.61 69.55 512 96 512L416 512C442.44 512 465.05 502.61 483.83 483.83C502.61 465.06 512 442.45 512 416L512 96C512 69.56 502.61 46.95 483.83 28.17C465.05 9.39 442.44 0 416 0L96 0ZM417.33 374.67C411.11 380.89 403.55 384 394.67 384L117.33 384C108.44 384 100.89 380.89 94.67 374.67C88.44 368.45 85.33 360.89 85.33 352L85.33 206.67C87.55 208.45 91 211.45 95.67 215.67C100.33 219.89 104 222.89 106.67 224.67C117.11 231.78 132.94 242.06 154.17 255.5C175.39 268.95 191.11 279.22 201.33 286.33C223.11 301.67 241.33 309.33 256 309.33C270.67 309.33 288.89 301.67 310.67 286.33C322.44 278.33 339.28 267.33 361.17 253.33C383.05 239.33 397.78 229.89 405.33 225C412.67 220.56 419.78 214.45 426.67 206.67L426.67 352L426.67 352L426.67 352C426.67 360.89 423.55 368.45 417.33 374.67ZM416.17 185.5C409.17 194.28 401.78 201.22 394 206.33L305 264.33C304.33 264.78 302.44 266.06 299.33 268.17C296.22 270.28 293.89 271.83 292.33 272.83C290.78 273.83 288.44 275.28 285.33 277.17C282.22 279.06 279.61 280.5 277.5 281.5C275.39 282.5 273 283.56 270.33 284.67C267.67 285.78 265.17 286.61 262.83 287.17C260.5 287.72 258.22 288 256 288C253.78 288 251.5 287.72 249.17 287.17C246.83 286.61 244.33 285.78 241.67 284.67C239 283.56 236.61 282.5 234.5 281.5C232.39 280.5 229.78 279.06 226.67 277.17C223.55 275.28 221.22 273.83 219.67 272.83C218.11 271.83 215.78 270.28 212.67 268.17C209.55 266.06 207.67 264.78 207 264.33C198.33 258.56 183.94 249.33 163.83 236.67C143.72 224 128.44 214.11 118 207C109.78 201.45 102.28 194.28 95.5 185.5C88.72 176.72 85.33 168.22 85.33 160C85.33 151.11 88.44 143.56 94.67 137.33C100.89 131.11 108.44 128 117.33 128L394.67 128C403.78 128 411.39 131.22 417.5 137.67C423.61 144.11 426.67 151.89 426.67 161C426.67 168.56 423.17 176.72 416.17 185.5Z" />
</svg>