<svg xmlns="http://www.w3.org/2000/svg" viewBox="0 0 512 512" width="512" height="512">
	<style>
		tspan { white-space:pre }
		.shp0 { fill: #000000 } 
	</style>
	<path id="Background" class="shp0" d="M477.67 131.17C454.78 91.02 423.72 59.22 384.5 35.79C345.28 12.36 302.44 0.64 256 0.64C209.55 0.64 166.72 12.36 127.5 35.79C88.28 59.22 57.22 91.02 34.33 131.17C11.44 171.32 0 215.18 0 262.72C0 319.83 16.28 371.19 48.83 416.8C81.39 462.42 123.44 493.98 175 511.5C181 512.64 185.44 511.84 188.33 509.11C191.22 506.38 192.67 502.97 192.67 498.87C192.67 498.19 192.61 492.05 192.5 480.45C192.39 468.84 192.33 458.72 192.33 450.07L184.67 451.44C179.78 452.35 173.61 452.75 166.17 452.63C158.72 452.52 151 451.73 143 450.24C135 448.77 127.55 445.35 120.67 440.01C113.78 434.66 108.89 427.67 106 419.02L102.67 411.17C100.44 405.94 96.94 400.14 92.17 393.77C87.39 387.4 82.55 383.07 77.67 380.8L75.33 379.09C73.78 377.96 72.33 376.59 71 375C69.67 373.41 68.67 371.81 68 370.22C67.33 368.63 67.89 367.32 69.67 366.29C71.44 365.27 74.67 364.76 79.33 364.76L86 365.78C90.44 366.69 95.94 369.42 102.5 373.97C109.05 378.53 114.44 384.44 118.67 391.72C123.78 401.05 129.94 408.16 137.17 413.05C144.39 417.94 151.67 420.38 159 420.38C166.33 420.38 172.67 419.82 178 418.68C183.33 417.54 188.33 415.84 193 413.56C195 398.32 200.44 386.6 209.33 378.41C196.67 377.04 185.28 375 175.17 372.27C165.05 369.54 154.61 365.1 143.83 358.96C133.05 352.81 124.11 345.19 117 336.09C109.89 327 104.05 315.05 99.5 300.26C94.94 285.47 92.67 268.41 92.67 249.07C92.67 221.55 101.44 198.11 119 178.77C110.78 158.07 111.55 134.87 121.33 109.16C127.78 107.11 137.33 108.64 150 113.76C162.67 118.88 171.94 123.26 177.83 126.9C183.72 130.54 188.44 133.61 192 136.12C212.67 130.2 234 127.24 256 127.24C278 127.24 299.33 130.2 320 136.12L332.67 127.92C341.33 122.46 351.55 117.46 363.33 112.91C375.11 108.36 384.11 107.11 390.33 109.16C400.33 134.87 401.22 158.07 393 178.77C410.55 198.11 419.33 221.55 419.33 249.07C419.33 268.41 417.05 285.53 412.5 300.43C407.94 315.33 402.05 327.28 394.83 336.26C387.61 345.25 378.61 352.81 367.83 358.96C357.05 365.1 346.61 369.54 336.5 372.27C326.39 375 315 377.04 302.33 378.41C313.89 388.65 319.67 404.8 319.67 426.87L319.67 498.87C319.67 502.97 321.05 506.38 323.83 509.11C326.61 511.84 331 512.64 337 511.5C388.55 493.98 430.61 462.42 463.17 416.8C495.72 371.19 512 319.83 512 262.72C512 215.18 500.55 171.32 477.67 131.17Z" />
</svg>