<svg xmlns="http://www.w3.org/2000/svg" viewBox="0 0 512 512" width="512" height="512">
	<style>
		tspan { white-space:pre }
		.shp0 { fill: #000000 } 
	</style>
	<path id="Background" class="shp0" d="" />
	<path id="Shape 1" class="shp0" d="" />
	<path id="Shape 2" class="shp0" d="M79 197.33L156 197.33L156 428.67L79 428.67L79 197.33ZM149 154.5C141 162.17 130.44 166 117.33 166L117 166C104.33 166 94.05 162.17 86.17 154.5C78.28 146.83 74.33 137.33 74.33 126C74.33 114.45 78.39 104.89 86.5 97.33C94.61 89.78 105.11 86 118 86C130.89 86 141.22 89.78 149 97.33C156.78 104.89 160.78 114.45 161 126C161 137.33 157 146.83 149 154.5ZM356 305C356 270.11 343.11 252.67 317.33 252.67C307.55 252.67 299.33 255.39 292.67 260.83C286 266.28 281 272.89 277.67 280.67C276.11 284.67 275.33 290.89 275.33 299.33L275.33 428.67L198.33 428.67C199 289.11 199 212 198.33 197.33L275.33 197.33L275.33 231L274.67 231C290.89 205 314.11 192 344.33 192C371 192 392.44 200.78 408.67 218.33C424.89 235.89 433 261.78 433 296L433 428.67L356 428.67L356 305ZM483.83 28.17C465.05 9.39 442.44 0 416 0L96 0C69.55 0 46.94 9.39 28.17 28.17C9.39 46.95 0 69.56 0 96L0 416C0 442.45 9.39 465.06 28.17 483.83C46.94 502.61 69.55 512 96 512L416 512C442.44 512 465.05 502.61 483.83 483.83C502.61 465.06 512 442.45 512 416L512 96C512 69.56 502.61 46.95 483.83 28.17Z" />
</svg>