<svg xmlns="http://www.w3.org/2000/svg" viewBox="0 0 512 512" width="512" height="512">
	<style>
		tspan { white-space:pre }
		.shp0 { fill: #000000 } 
	</style>
	<path id="Background" class="shp0" d="" />
	<path id="Shape 1" class="shp0" d="M448 447.17C444 451.06 439.22 453 433.67 453L77.33 453C71.55 453 66.72 451.06 62.83 447.17C58.94 443.28 57 438.45 57 432.67L57 216.67L104 216.67C99.55 230.67 97.33 245.22 97.33 260.33C97.33 303 112.89 339.39 144 369.5C175.11 399.61 212.55 414.67 256.33 414.67C285.22 414.67 311.89 407.78 336.33 394C360.78 380.22 380.11 361.5 394.33 337.83C408.55 314.17 415.67 288.33 415.67 260.33C415.67 245.22 413.44 230.67 409 216.67L454 216.67L454 432.67C454 438.45 452 443.28 448 447.17ZM256.33 354.67C228.11 354.67 203.94 344.95 183.83 325.5C163.72 306.06 153.67 282.56 153.67 255C153.67 227.45 163.72 203.95 183.83 184.5C203.94 165.06 228.11 155.33 256.33 155.33C284.78 155.33 309.05 165.06 329.17 184.5C349.28 203.95 359.33 227.45 359.33 255C359.33 282.56 349.28 306.06 329.17 325.5C309.05 344.95 284.78 354.67 256.33 354.67L256.33 354.67ZM447.33 151.33C442.89 155.78 437.44 158 431 158L373 158C366.55 158 361.11 155.78 356.67 151.33C352.22 146.89 350 141.45 350 135L350 80C350 73.78 352.22 68.39 356.67 63.83C361.11 59.28 366.55 57 373 57L431 57C437.44 57 442.89 59.28 447.33 63.83C451.78 68.39 454 73.78 454 80L454 135C454 141.45 451.78 146.89 447.33 151.33ZM492.67 19.33C479.78 6.45 464.33 0 446.33 0L65.67 0C47.67 0 32.22 6.45 19.33 19.33C6.44 32.22 0 47.67 0 65.67L0 446.33C0 464.33 6.44 479.78 19.33 492.67C32.22 505.55 47.67 512 65.67 512L446.33 512C464.33 512 479.78 505.55 492.67 492.67C505.55 479.78 512 464.33 512 446.33L512 65.67C512 47.67 505.55 32.22 492.67 19.33Z" />
</svg>