<svg xmlns="http://www.w3.org/2000/svg" viewBox="0 0 512 512" width="512" height="512">
	<style>
		tspan { white-space:pre }
		.shp0 { fill: #000000 } 
	</style>
	<path id="Background" class="shp0" d="" />
	<path id="Shape 1" class="shp0" d="M256 256C220.66 256 190.5 247.67 165.5 231C140.5 214.33 128 194.22 128 170.67C128 147.11 140.5 127 165.5 110.33C190.5 93.67 220.66 85.33 256 85.33C291.33 85.33 321.5 93.67 346.5 110.33C371.5 127 384 147.11 384 170.67C384 194.22 371.5 214.33 346.5 231C321.5 247.67 291.33 256 256 256ZM437 50C387 16.67 326.66 0 256 0C185.33 0 125 16.67 75 50C25 83.33 0 123.56 0 170.67C0 194.89 5.5 214.78 16.5 230.33L199 488.33C204 495.67 211.75 501.44 222.25 505.67C232.75 509.89 244 512 256 512C268 512 279.25 509.89 289.75 505.67C300.25 501.44 308.16 495.67 313.5 488.33L495.5 230.33C506.5 214.78 512 194.89 512 170.67C512 123.56 487 83.33 437 50Z" />
</svg>