<svg xmlns="http://www.w3.org/2000/svg" viewBox="0 0 512 512" width="512" height="512">
	<style>
		tspan { white-space:pre }
		.shp0 { fill: #000000 } 
	</style>
	<path id="Background" class="shp0" d="" />
	<path id="Shape 1" class="shp0" d="M500 411.78C492 404.12 480.97 397.67 466.91 392.44C452.85 387.2 438.55 382.89 424 379.49C409.45 376.1 393.57 373.24 376.36 370.91C370.06 369.94 364.24 370.96 358.91 373.96C353.57 376.97 350.42 381 349.45 386.04C348.24 391.08 349.51 395.74 353.27 400C357.03 404.27 362.06 406.79 368.36 407.56C382.42 409.5 395.27 411.78 406.91 414.4C418.55 417.02 427.82 419.45 434.73 421.67C441.64 423.9 447.51 426.18 452.36 428.51C457.21 430.84 460.55 432.68 462.36 434.04C464.18 435.4 465.21 436.46 465.45 437.24C464.73 439.56 461.45 442.23 455.64 445.24C449.82 448.24 440.97 451.49 429.09 454.98C417.21 458.47 403.39 461.67 387.64 464.58C371.87 467.49 352.42 469.91 329.27 471.85C306.12 473.79 281.69 474.76 256 474.76C230.3 474.76 205.87 473.79 182.73 471.85C159.57 469.91 140.12 467.49 124.36 464.58C108.6 461.67 94.78 458.52 82.91 455.13C71.03 451.73 62.18 448.53 56.36 445.53C50.55 442.52 47.27 439.95 46.55 437.82C46.78 437.05 47.82 435.88 49.64 434.33C51.45 432.78 54.78 430.89 59.64 428.65C64.48 426.43 70.36 424.15 77.27 421.82C84.18 419.49 93.45 417.02 105.09 414.4C116.73 411.78 129.57 409.5 143.64 407.56C149.94 406.79 154.97 404.27 158.73 400C162.48 395.74 163.76 391.08 162.55 386.04C161.57 381 158.42 376.97 153.09 373.96C147.76 370.96 141.94 369.94 135.64 370.91C118.42 373.24 102.55 376.1 88 379.49C73.45 382.89 59.15 387.2 45.09 392.44C31.03 397.67 20 404.12 12 411.78C4 419.45 0 428.03 0 437.53C0 449.75 7.45 460.75 22.36 470.55C37.27 480.34 57.15 488.19 82 494.11C106.85 500.02 134.12 504.48 163.82 507.49C193.51 510.5 224.24 512 256 512C287.76 512 318.48 510.5 348.18 507.49C377.87 504.48 405.15 500.02 430 494.11C454.85 488.19 474.73 480.34 489.64 470.55C504.55 460.75 512 449.75 512 437.53C512 428.03 508 419.45 500 411.78ZM358.73 150.55C349.64 143.27 338.66 139.64 325.82 139.64L186.18 139.64C173.33 139.64 162.36 143.27 153.27 150.55C144.18 157.82 139.64 166.6 139.64 176.87L139.64 288.58C139.64 293.63 141.94 297.99 146.55 301.67C151.15 305.36 156.6 307.2 162.91 307.2L186.18 307.2L186.18 418.91C186.18 423.95 188.48 428.32 193.09 432C197.69 435.69 203.15 437.53 209.45 437.53L302.55 437.53C308.85 437.53 314.3 435.69 318.91 432C323.51 428.32 325.82 423.95 325.82 418.91L325.82 307.2L349.09 307.2C355.39 307.2 360.85 305.36 365.45 301.67C370.06 297.99 372.36 293.63 372.36 288.58L372.36 176.87C372.36 166.6 367.82 157.82 358.73 150.55ZM256 0C233.45 0 214.24 6.35 198.36 19.05C182.48 31.76 174.55 47.13 174.55 65.16C174.55 83.2 182.48 98.57 198.36 111.27C214.24 123.98 233.45 130.33 256 130.33C278.55 130.33 297.76 123.98 313.64 111.27C329.51 98.57 337.45 83.2 337.45 65.16C337.45 47.13 329.51 31.76 313.64 19.05C297.76 6.35 278.55 0 256 0Z" />
</svg>