<svg xmlns="http://www.w3.org/2000/svg" viewBox="0 0 512 512" width="512" height="512">
	<style>
		tspan { white-space:pre }
		.shp0 { fill: #000000 } 
	</style>
	<path id="Background" class="shp0" d="M419.33 388.67C414.67 398.89 404.17 407.78 387.83 415.33C371.5 422.89 357 426.67 344.33 426.67C340.78 426.67 337 426.39 333 425.83C329 425.28 325.61 424.72 322.83 424.17C320.05 423.61 316.39 422.61 311.83 421.17C307.28 419.72 304 418.61 302 417.83C300 417.06 296.33 415.67 291 413.67C285.67 411.67 282.33 410.45 281 410C244.55 396.67 208.94 372.61 174.17 337.83C139.39 303.06 115.33 267.45 102 231C101.55 229.67 100.33 226.33 98.33 221C96.33 215.67 94.94 212 94.17 210C93.39 208 92.28 204.72 90.83 200.17C89.39 195.61 88.39 191.95 87.83 189.17C87.28 186.39 86.72 183 86.17 179C85.61 175 85.33 171.22 85.33 167.67C85.33 155 89.11 140.5 96.67 124.17C104.22 107.83 113.11 97.33 123.33 92.67C135.11 87.78 146.33 85.33 157 85.33C159.44 85.33 161.22 85.56 162.33 86C163.44 86.45 165.28 88.45 167.83 92C170.39 95.56 173.17 100.06 176.17 105.5C179.17 110.95 182.11 116.22 185 121.33C187.89 126.45 190.67 131.5 193.33 136.5C196 141.5 197.67 144.67 198.33 146C199 147.11 200.44 149.22 202.67 152.33C204.89 155.45 206.55 158.22 207.67 160.67C208.78 163.11 209.33 165.45 209.33 167.67C209.33 171 207.05 175.06 202.5 179.83C197.94 184.61 192.94 189 187.5 193C182.05 197 177.05 201.28 172.5 205.83C167.94 210.39 165.67 214.11 165.67 217C165.67 218.56 166.05 220.39 166.83 222.5C167.61 224.61 168.33 226.33 169 227.67C169.67 229 170.72 230.89 172.17 233.33C173.61 235.78 174.55 237.33 175 238C187.22 260 201.28 278.95 217.17 294.83C233.05 310.72 252 324.78 274 337C274.67 337.45 276.22 338.39 278.67 339.83C281.11 341.28 283 342.33 284.33 343C285.67 343.67 287.39 344.39 289.5 345.17C291.61 345.95 293.44 346.33 295 346.33C298.55 346.33 303.44 342.67 309.67 335.33C315.89 328 322.22 320.72 328.67 313.5C335.11 306.28 340.33 302.67 344.33 302.67C346.55 302.67 348.89 303.22 351.33 304.33C353.78 305.45 356.55 307.11 359.67 309.33C362.78 311.56 364.89 313 366 313.67L383.67 323.33C395.44 329.56 405.28 335.06 413.17 339.83C421.05 344.61 425.33 347.89 426 349.67C426.44 350.78 426.67 352.56 426.67 355C426.67 365.67 424.22 376.89 419.33 388.67L419.33 388.67ZM483.83 28.17C465.05 9.39 442.44 0 416 0L96 0C69.55 0 46.94 9.39 28.17 28.17C9.39 46.95 0 69.56 0 96L0 416C0 442.45 9.39 465.06 28.17 483.83C46.94 502.61 69.55 512 96 512L416 512C442.44 512 465.05 502.61 483.83 483.83C502.61 465.06 512 442.45 512 416L512 96C512 69.56 502.61 46.95 483.83 28.17Z" />
</svg>