<svg xmlns="http://www.w3.org/2000/svg" viewBox="0 0 512 512" width="512" height="512">
	<style>
		tspan { white-space:pre }
		.shp0 { fill: #000000 } 
	</style>
	<path id="Background" class="shp0" d="M442.98 397.49L396.86 443.29C391 448.74 383.89 451.45 375.53 451.45C366.95 451.45 359.84 448.63 354.2 442.98L289.57 378.04C283.71 372.19 280.78 365.07 280.78 356.71C280.78 347.92 284.24 340.29 291.14 333.8C291.76 334.43 293.7 336.42 296.94 339.76C300.18 343.11 302.43 345.36 303.69 346.51C304.94 347.66 306.93 349.23 309.65 351.22C312.36 353.21 315.03 354.56 317.65 355.29C320.26 356.03 323.14 356.39 326.27 356.39C334.64 356.39 341.75 353.47 347.61 347.61C353.46 341.75 356.39 334.64 356.39 326.27C356.39 323.14 356.02 320.26 355.29 317.65C354.56 315.03 353.2 312.37 351.22 309.65C349.23 306.93 347.66 304.94 346.51 303.69C345.36 302.43 343.11 300.19 339.76 296.94C336.42 293.7 334.43 291.76 333.8 291.14C340.08 284.45 347.61 281.1 356.39 281.1C364.75 281.1 371.87 284.03 377.73 289.88L442.98 355.14C448.83 361 451.76 368.11 451.76 376.47C451.76 384.63 448.83 391.64 442.98 397.49L442.98 397.49ZM220.86 178.2C220.24 177.57 218.3 175.58 215.06 172.24C211.81 168.89 209.57 166.64 208.31 165.49C207.06 164.34 205.07 162.77 202.35 160.78C199.63 158.8 196.97 157.44 194.35 156.71C191.74 155.98 188.86 155.61 185.73 155.61C177.36 155.61 170.25 158.54 164.39 164.39C158.53 170.25 155.61 177.36 155.61 185.73C155.61 188.86 155.97 191.74 156.71 194.35C157.44 196.97 158.79 199.64 160.78 202.35C162.77 205.07 164.34 207.06 165.49 208.31C166.64 209.57 168.89 211.82 172.24 215.06C175.58 218.3 177.57 220.24 178.2 220.86C171.92 227.35 164.39 230.59 155.61 230.59C147.03 230.59 139.92 227.76 134.27 222.12L69.02 156.86C63.16 151.01 60.24 143.9 60.24 135.53C60.24 127.37 63.16 120.37 69.02 114.51L115.14 68.71C121.2 63.06 128.31 60.24 136.47 60.24C144.83 60.24 151.95 63.17 157.8 69.02L222.43 133.96C228.28 139.82 231.22 146.93 231.22 155.29C231.22 164.08 227.76 171.72 220.86 178.2L220.86 178.2ZM485.65 312.47L420.39 247.22C402.82 229.65 381.49 220.86 356.39 220.86C330.87 220.86 309.12 230.07 291.14 248.47L263.53 220.86C281.93 202.88 291.14 181.02 291.14 155.29C291.14 130.2 282.46 108.97 265.1 91.61L200.47 26.67C183.11 8.89 161.77 0 136.47 0C111.37 0 90.14 8.68 72.78 26.04L26.67 71.84C8.89 89.21 0 110.43 0 135.53C0 160.63 8.78 181.96 26.35 199.53L91.61 264.78C109.18 282.35 130.51 291.14 155.61 291.14C181.12 291.14 202.87 281.94 220.86 263.53L248.47 291.14C230.06 309.13 220.86 330.98 220.86 356.71C220.86 381.8 229.54 403.03 246.9 420.39L311.53 485.33C328.89 503.11 350.22 512 375.53 512C400.63 512 421.85 503.32 439.22 485.96L485.33 440.16C503.11 422.8 512 401.57 512 376.47C512 351.37 503.22 330.04 485.65 312.47L485.65 312.47Z" />
</svg>